<svg xmlns="http://www.w3.org/2000/svg" xmlns:xlink="http://www.w3.org/1999/xlink" width="500" zoomAndPan="magnify" viewBox="0 0 375 374.999991" height="500" preserveAspectRatio="xMidYMid meet" version="1.0"><defs><clipPath id="322e8ae508"><path d="M 0 19.132812 L 375 19.132812 L 375 355.882812 L 0 355.882812 Z M 0 19.132812 " clip-rule="nonzero"/></clipPath></defs><g clip-path="url(#322e8ae508)"><path fill="#9e4f56" d="M 71.828125 297.738281 C 86.414062 297.738281 100.925781 295.839844 114.980469 292.039062 C 115.96875 291.734375 116.957031 291.507812 117.945312 291.203125 C 123.261719 289.683594 126.605469 284.667969 125.921875 279.199219 C 125.921875 279.046875 125.84375 278.820312 125.84375 278.667969 C 121.4375 280.261719 116.957031 281.707031 112.472656 282.921875 C 92.1875 288.390625 71.371094 289.609375 50.703125 286.796875 C 55.945312 294.242188 61.796875 301.15625 68.179688 307.613281 C 78.511719 318.023438 90.136719 326.988281 102.902344 334.359375 C 115.285156 341.5 128.582031 347.046875 142.332031 350.769531 C 151.375 353.199219 160.71875 354.949219 170.0625 355.78125 L 170.292969 355.78125 L 170.140625 355.632812 C 157.375 339.070312 148.183594 320.300781 142.863281 300.472656 C 141.34375 294.851562 140.128906 289.152344 139.292969 283.378906 C 146.664062 280.109375 153.730469 276.3125 160.566406 271.980469 C 165.960938 280.566406 172.34375 288.46875 179.410156 295.535156 C 187.84375 303.96875 197.339844 311.261719 207.746094 317.261719 C 223.398438 326.304688 240.570312 332.078125 258.273438 334.359375 C 262.527344 334.890625 266.78125 335.269531 271.113281 335.421875 L 271.265625 335.421875 L 251.890625 305.03125 C 274.53125 314.527344 298.996094 317.566406 322.625 314.453125 C 337.285156 312.554688 351.648438 308.222656 365.09375 301.613281 L 365.246094 301.535156 L 365.398438 301.460938 L 365.550781 301.382812 L 365.625 301.382812 L 365.703125 301.308594 L 365.855469 301.230469 L 366.007812 301.15625 L 366.15625 301.082031 L 366.308594 301.003906 L 366.386719 301.003906 L 366.460938 300.929688 L 366.613281 300.851562 L 366.765625 300.777344 L 366.917969 300.699219 L 367.070312 300.625 L 367.144531 300.625 L 367.222656 300.546875 L 367.527344 300.398438 L 367.675781 300.320312 L 367.828125 300.246094 L 367.980469 300.09375 L 368.132812 300.015625 L 368.285156 299.941406 L 368.4375 299.863281 L 368.589844 299.789062 L 368.664062 299.714844 L 368.742188 299.714844 L 368.894531 299.636719 L 369.046875 299.5625 L 369.195312 299.484375 L 369.347656 299.410156 L 369.425781 299.332031 L 369.5 299.332031 L 369.652344 299.257812 L 369.804688 299.179688 L 370.109375 299.03125 L 370.183594 298.953125 L 370.261719 298.953125 L 370.414062 298.878906 L 370.566406 298.800781 L 370.714844 298.726562 L 370.867188 298.648438 L 370.945312 298.574219 L 371.019531 298.574219 L 371.171875 298.496094 L 371.476562 298.347656 L 371.628906 298.269531 L 371.78125 298.195312 L 371.933594 298.117188 L 372.085938 298.042969 L 372.234375 297.964844 L 372.386719 297.890625 L 372.539062 297.8125 L 372.691406 297.738281 L 372.84375 297.660156 L 373.148438 297.511719 L 373.300781 297.433594 L 373.453125 297.359375 L 373.605469 297.28125 L 373.753906 297.207031 L 373.90625 297.128906 L 374.058594 297.054688 L 374.210938 296.976562 L 374.515625 296.828125 L 374.667969 296.75 L 374.820312 296.675781 L 215.878906 204.894531 L 211.699219 202.464844 L 209.417969 206.71875 C 209.039062 207.476562 208.355469 208.695312 207.445312 210.289062 C 190.804688 239.160156 166.339844 260.660156 138.230469 273.730469 C 137.847656 269.476562 137.699219 265.296875 137.621094 261.042969 C 137.621094 259.066406 136.863281 257.394531 135.34375 256.101562 C 133.898438 254.8125 132.074219 254.203125 130.175781 254.433594 C 129.566406 254.507812 128.882812 254.582031 128.277344 254.660156 C 127.746094 271.070312 129.644531 287.480469 133.824219 303.285156 C 137.546875 317.265625 143.167969 330.789062 150.460938 343.398438 C 148.636719 342.945312 146.738281 342.488281 144.914062 342.03125 C 132 338.539062 119.464844 333.296875 107.6875 326.535156 C 95.605469 319.542969 84.589844 311.035156 74.941406 301.308594 C 73.878906 300.246094 72.8125 299.183594 71.828125 298.042969 Z M 289.347656 88.195312 C 255.382812 68.59375 216.710938 64.640625 181.613281 73.988281 C 170.0625 77.101562 158.894531 81.660156 148.410156 87.511719 L 158.058594 93.058594 C 166.339844 88.804688 175.078125 85.460938 184.042969 83.105469 C 216.789062 74.367188 252.878906 78.015625 284.558594 96.324219 C 316.242188 114.632812 337.515625 144.039062 346.253906 176.785156 C 350.507812 192.738281 351.796875 209.378906 349.976562 226.015625 C 348.152344 237.945312 345.035156 249.71875 340.554688 261.269531 L 349.0625 266.207031 C 354.382812 253.519531 357.800781 240.453125 359.320312 227.308594 C 363.117188 202.3125 361.597656 177.085938 355.21875 153.078125 C 343.214844 108.40625 314.265625 68.289062 271.035156 43.367188 C 227.804688 18.449219 178.574219 13.359375 133.898438 25.285156 C 97.355469 35.085938 63.847656 56.285156 39.230469 87.285156 L 47.515625 92.070312 C 70.761719 63.273438 102.140625 43.519531 136.328125 34.402344 C 178.648438 23.082031 225.296875 27.871094 266.25 51.5 C 302.035156 72.164062 327.5625 103.847656 341.011719 139.707031 C 329.003906 118.964844 311.53125 100.960938 289.195312 88.042969 Z M 65.519531 235.132812 C 82.539062 244.933594 98.875 249.949219 113.992188 251.089844 C 131.46875 252.378906 147.347656 248.503906 160.792969 240.832031 C 174.242188 233.15625 185.335938 221.761719 193.234375 208.085938 C 200.910156 194.867188 205.621094 179.367188 206.835938 163.03125 C 207.519531 154.066406 210.253906 147.457031 214.128906 143.203125 C 216.789062 140.316406 220.132812 138.492188 223.703125 137.960938 C 227.347656 137.351562 231.453125 137.960938 235.480469 139.78125 C 242.542969 142.972656 249.535156 149.8125 255.15625 160.371094 L 256.828125 163.640625 L 260.398438 162.804688 L 272.25 159.992188 L 286.535156 156.574219 L 257.285156 146.164062 C 251.890625 139.023438 245.660156 134.085938 239.429688 131.273438 C 233.578125 128.613281 227.652344 127.777344 222.183594 128.691406 C 216.5625 129.601562 211.394531 132.335938 207.214844 136.894531 C 201.898438 142.59375 198.25 151.179688 197.414062 162.421875 C 196.273438 177.316406 191.945312 191.445312 185.03125 203.449219 C 177.890625 215.757812 168.089844 225.941406 156.160156 232.777344 C 150.839844 235.816406 145.066406 238.171875 138.988281 239.765625 C 141.574219 220.015625 148.03125 200.410156 158.667969 182.027344 C 159.578125 180.429688 160.261719 179.289062 160.71875 178.53125 L 163.226562 174.429688 L 159.046875 171.996094 L 9.601562 85.6875 L 5.878906 83.558594 L 0.105469 80.21875 C -0.125 98.984375 3.449219 117.445312 10.511719 134.464844 C 19.628906 156.496094 34.445312 176.097656 54.046875 190.992188 L 18.035156 189.394531 C 29.8125 208.238281 46.144531 224.117188 65.597656 235.285156 Z M 129.1875 241.4375 C 124.476562 241.972656 119.691406 242.046875 114.675781 241.667969 C 100.925781 240.601562 85.957031 235.96875 70.230469 226.925781 C 57.617188 219.632812 46.527344 210.363281 37.179688 199.5 L 70.535156 201.019531 L 89.910156 201.855469 L 73.117188 192.207031 C 48.199219 177.769531 29.582031 155.890625 19.175781 130.664062 C 14.691406 119.953125 11.730469 108.554688 10.363281 96.933594 L 150.082031 177.617188 C 138.457031 197.90625 131.621094 219.558594 129.1875 241.4375 Z M 355.066406 295.988281 C 344.277344 300.625 332.957031 303.738281 321.40625 305.257812 C 294.359375 308.828125 266.097656 303.664062 241.175781 289.304688 L 224.386719 279.65625 L 234.796875 295.988281 L 252.726562 324.101562 C 238.746094 321.441406 225.070312 316.503906 212.535156 309.210938 C 202.808594 303.585938 193.996094 296.824219 186.171875 289 C 179.484375 282.3125 173.558594 274.867188 168.46875 266.890625 C 187.007812 253.671875 203.113281 236.347656 215.269531 215.378906 L 355.066406 296.066406 Z M 355.066406 295.988281 " fill-opacity="1" fill-rule="nonzero"/></g></svg>