<svg xmlns="http://www.w3.org/2000/svg" xmlns:xlink="http://www.w3.org/1999/xlink" width="600" zoomAndPan="magnify" viewBox="0 0 450 112.499997" height="150" preserveAspectRatio="xMidYMid meet" version="1.0"><defs><g/><clipPath id="c286b1c46c"><path d="M 1 9.332031 L 104.785156 9.332031 L 104.785156 102.667969 L 1 102.667969 Z M 1 9.332031 " clip-rule="nonzero"/></clipPath></defs><g clip-path="url(#c286b1c46c)"><path fill="#9e4f56" d="M 20.902344 86.558594 C 24.945312 86.558594 28.96875 86.03125 32.863281 84.980469 C 33.136719 84.894531 33.414062 84.832031 33.6875 84.746094 C 35.160156 84.324219 36.085938 82.9375 35.898438 81.417969 C 35.898438 81.378906 35.875 81.316406 35.875 81.273438 C 34.65625 81.714844 33.414062 82.113281 32.167969 82.453125 C 26.546875 83.96875 20.777344 84.304688 15.046875 83.527344 C 16.5 85.589844 18.121094 87.507812 19.890625 89.296875 C 22.757812 92.179688 25.976562 94.667969 29.515625 96.707031 C 32.949219 98.6875 36.632812 100.226562 40.445312 101.257812 C 42.953125 101.929688 45.542969 102.414062 48.132812 102.648438 L 48.195312 102.648438 L 48.152344 102.605469 C 44.617188 98.015625 42.066406 92.8125 40.59375 87.316406 C 40.171875 85.757812 39.835938 84.179688 39.605469 82.578125 C 41.644531 81.671875 43.605469 80.621094 45.5 79.417969 C 46.996094 81.800781 48.765625 83.988281 50.722656 85.949219 C 53.058594 88.285156 55.691406 90.308594 58.578125 91.96875 C 62.917969 94.476562 67.675781 96.078125 72.582031 96.707031 C 73.761719 96.855469 74.941406 96.960938 76.140625 97.003906 L 76.183594 97.003906 L 70.8125 88.578125 C 77.089844 91.210938 83.871094 92.054688 90.417969 91.191406 C 94.484375 90.664062 98.464844 89.464844 102.191406 87.632812 L 102.234375 87.609375 L 102.320312 87.570312 L 102.339844 87.570312 L 102.359375 87.546875 L 102.445312 87.507812 L 102.488281 87.484375 L 102.527344 87.464844 L 102.550781 87.464844 L 102.570312 87.441406 L 102.65625 87.402344 L 102.699219 87.378906 L 102.738281 87.359375 L 102.761719 87.359375 L 102.78125 87.335938 L 102.867188 87.296875 L 102.90625 87.273438 L 102.949219 87.253906 L 102.992188 87.210938 L 103.035156 87.191406 L 103.078125 87.167969 L 103.117188 87.148438 L 103.160156 87.125 L 103.183594 87.105469 L 103.203125 87.105469 L 103.246094 87.085938 L 103.289062 87.0625 L 103.328125 87.042969 L 103.371094 87.023438 L 103.390625 87 L 103.414062 87 L 103.457031 86.980469 L 103.496094 86.957031 L 103.582031 86.917969 L 103.601562 86.894531 L 103.625 86.894531 L 103.667969 86.875 L 103.707031 86.851562 L 103.792969 86.8125 L 103.8125 86.789062 L 103.835938 86.789062 L 103.875 86.769531 L 103.917969 86.746094 L 104.003906 86.707031 L 104.046875 86.683594 L 104.085938 86.664062 L 104.128906 86.644531 L 104.171875 86.621094 L 104.214844 86.601562 L 104.257812 86.578125 L 104.296875 86.558594 L 104.339844 86.539062 L 104.382812 86.515625 L 104.425781 86.496094 L 104.464844 86.472656 L 104.550781 86.433594 L 104.59375 86.410156 L 104.636719 86.390625 L 104.675781 86.367188 L 104.761719 86.328125 L 104.804688 86.304688 L 104.84375 86.285156 L 104.886719 86.261719 L 60.832031 60.824219 L 59.671875 60.148438 L 59.042969 61.328125 C 58.9375 61.539062 58.746094 61.875 58.492188 62.320312 C 53.882812 70.320312 47.101562 76.28125 39.308594 79.902344 C 39.203125 78.722656 39.160156 77.566406 39.140625 76.386719 C 39.140625 75.839844 38.929688 75.375 38.507812 75.019531 C 38.109375 74.660156 37.601562 74.492188 37.078125 74.554688 C 36.90625 74.574219 36.71875 74.597656 36.550781 74.617188 C 36.402344 79.167969 36.929688 83.714844 38.085938 88.097656 C 39.121094 91.972656 40.675781 95.71875 42.699219 99.214844 C 42.195312 99.089844 41.667969 98.960938 41.160156 98.835938 C 37.582031 97.867188 34.105469 96.414062 30.84375 94.539062 C 27.496094 92.601562 24.441406 90.242188 21.765625 87.546875 C 21.472656 87.253906 21.175781 86.957031 20.902344 86.644531 Z M 81.195312 28.476562 C 71.78125 23.042969 61.0625 21.949219 51.332031 24.539062 C 48.132812 25.402344 45.035156 26.664062 42.128906 28.285156 L 44.804688 29.824219 C 47.101562 28.644531 49.523438 27.71875 52.007812 27.066406 C 61.085938 24.644531 71.085938 25.65625 79.867188 30.730469 C 88.652344 35.804688 94.546875 43.957031 96.96875 53.03125 C 98.148438 57.453125 98.507812 62.066406 98 66.679688 C 97.496094 69.984375 96.632812 73.25 95.390625 76.449219 L 97.75 77.820312 C 99.222656 74.300781 100.171875 70.679688 100.589844 67.035156 C 101.644531 60.109375 101.222656 53.117188 99.453125 46.460938 C 96.128906 34.078125 88.101562 22.957031 76.121094 16.050781 C 64.136719 9.144531 50.492188 7.734375 38.109375 11.039062 C 27.980469 13.757812 18.691406 19.632812 11.867188 28.222656 L 14.164062 29.550781 C 20.609375 21.570312 29.304688 16.09375 38.78125 13.566406 C 50.511719 10.429688 63.441406 11.753906 74.792969 18.304688 C 84.710938 24.03125 91.789062 32.816406 95.515625 42.753906 C 92.1875 37.003906 87.34375 32.015625 81.152344 28.433594 Z M 19.15625 69.207031 C 23.871094 71.921875 28.398438 73.3125 32.589844 73.628906 C 37.433594 73.984375 41.835938 72.910156 45.5625 70.785156 C 49.289062 68.65625 52.367188 65.5 54.554688 61.707031 C 56.683594 58.042969 57.988281 53.746094 58.324219 49.21875 C 58.515625 46.734375 59.273438 44.902344 60.347656 43.722656 C 61.085938 42.921875 62.011719 42.417969 63 42.269531 C 64.011719 42.101562 65.148438 42.269531 66.265625 42.777344 C 68.222656 43.660156 70.160156 45.554688 71.71875 48.484375 L 72.183594 49.386719 L 73.171875 49.15625 L 76.457031 48.378906 L 80.417969 47.429688 L 72.308594 44.542969 C 70.8125 42.566406 69.085938 41.195312 67.359375 40.417969 C 65.738281 39.679688 64.09375 39.449219 62.578125 39.699219 C 61.019531 39.953125 59.589844 40.710938 58.429688 41.976562 C 56.957031 43.554688 55.945312 45.933594 55.714844 49.050781 C 55.398438 53.179688 54.199219 57.097656 52.28125 60.421875 C 50.300781 63.835938 47.585938 66.65625 44.277344 68.550781 C 42.804688 69.394531 41.203125 70.046875 39.519531 70.488281 C 40.234375 65.015625 42.027344 59.582031 44.972656 54.484375 C 45.226562 54.042969 45.414062 53.726562 45.542969 53.515625 L 46.238281 52.378906 L 45.078125 51.703125 L 3.65625 27.78125 L 2.625 27.191406 L 1.023438 26.265625 C 0.960938 31.46875 1.949219 36.585938 3.90625 41.300781 C 6.433594 47.410156 10.542969 52.84375 15.976562 56.96875 L 5.992188 56.527344 C 9.257812 61.75 13.785156 66.152344 19.175781 69.246094 Z M 36.800781 70.953125 C 35.496094 71.101562 34.171875 71.121094 32.78125 71.015625 C 28.96875 70.722656 24.820312 69.4375 20.460938 66.929688 C 16.964844 64.910156 13.890625 62.339844 11.300781 59.328125 L 20.542969 59.75 L 25.914062 59.980469 L 21.261719 57.308594 C 14.351562 53.304688 9.195312 47.242188 6.308594 40.25 C 5.066406 37.28125 4.246094 34.121094 3.867188 30.898438 L 42.59375 53.261719 C 39.371094 58.886719 37.476562 64.886719 36.800781 70.953125 Z M 99.414062 86.074219 C 96.421875 87.359375 93.285156 88.222656 90.082031 88.644531 C 82.585938 89.632812 74.75 88.199219 67.84375 84.21875 L 63.191406 81.546875 L 66.074219 86.074219 L 71.046875 93.867188 C 67.171875 93.128906 63.378906 91.761719 59.90625 89.738281 C 57.210938 88.179688 54.765625 86.304688 52.597656 84.136719 C 50.742188 82.285156 49.101562 80.21875 47.691406 78.007812 C 52.828125 74.34375 57.292969 69.542969 60.664062 63.730469 L 99.414062 86.09375 Z M 99.414062 86.074219 " fill-opacity="1" fill-rule="nonzero"/></g><g fill="#2c2f32" fill-opacity="1"><g transform="translate(122.331303, 61.377208)"><g><path d="M 32.515625 -25.375 L 32.515625 -24.65625 C 32.054688 -24.5625 31.550781 -24.289062 31 -23.84375 C 30.457031 -23.40625 30.015625 -22.640625 29.671875 -21.546875 L 22.90625 0.171875 C 22.851562 0.171875 22.800781 0.171875 22.75 0.171875 C 22.707031 0.171875 22.664062 0.171875 22.625 0.171875 C 22.570312 0.171875 22.519531 0.171875 22.46875 0.171875 C 22.425781 0.171875 22.378906 0.171875 22.328125 0.171875 L 14.734375 -22.359375 C 14.421875 -23.296875 14.070312 -23.90625 13.6875 -24.1875 C 13.3125 -24.476562 12.953125 -24.632812 12.609375 -24.65625 L 12.609375 -25.375 C 13.046875 -25.351562 13.585938 -25.328125 14.234375 -25.296875 C 14.878906 -25.273438 15.5 -25.265625 16.09375 -25.265625 C 17.019531 -25.265625 17.890625 -25.273438 18.703125 -25.296875 C 19.515625 -25.328125 20.175781 -25.351562 20.6875 -25.375 L 20.6875 -24.65625 C 19.96875 -24.632812 19.398438 -24.5625 18.984375 -24.4375 C 18.566406 -24.320312 18.328125 -24.0625 18.265625 -23.65625 C 18.203125 -23.25 18.316406 -22.582031 18.609375 -21.65625 L 23.9375 -5.125 L 23.4375 -4.703125 L 28.171875 -19.578125 C 28.597656 -20.890625 28.789062 -21.910156 28.75 -22.640625 C 28.71875 -23.367188 28.453125 -23.878906 27.953125 -24.171875 C 27.453125 -24.472656 26.703125 -24.632812 25.703125 -24.65625 L 25.703125 -25.375 C 26.390625 -25.351562 27.09375 -25.328125 27.8125 -25.296875 C 28.53125 -25.273438 29.203125 -25.265625 29.828125 -25.265625 C 30.441406 -25.265625 30.953125 -25.273438 31.359375 -25.296875 C 31.765625 -25.328125 32.148438 -25.351562 32.515625 -25.375 Z M 7.453125 -25.375 L 7.453125 -24.65625 C 6.835938 -24.613281 6.390625 -24.492188 6.109375 -24.296875 C 5.835938 -24.109375 5.707031 -23.804688 5.71875 -23.390625 C 5.726562 -22.972656 5.851562 -22.394531 6.09375 -21.65625 L 11.65625 -4.703125 L 10.75 -3.796875 L 15.765625 -19.828125 L 16.3125 -18.96875 L 10.390625 0.171875 C 10.347656 0.171875 10.300781 0.171875 10.25 0.171875 C 10.195312 0.171875 10.148438 0.171875 10.109375 0.171875 C 10.054688 0.171875 10.003906 0.171875 9.953125 0.171875 C 9.910156 0.171875 9.867188 0.171875 9.828125 0.171875 L 2.21875 -22.359375 C 1.90625 -23.296875 1.507812 -23.90625 1.03125 -24.1875 C 0.5625 -24.476562 0.132812 -24.632812 -0.25 -24.65625 L -0.25 -25.375 C 0.226562 -25.351562 0.816406 -25.328125 1.515625 -25.296875 C 2.222656 -25.273438 2.910156 -25.265625 3.578125 -25.265625 C 4.367188 -25.265625 5.101562 -25.273438 5.78125 -25.296875 C 6.46875 -25.328125 7.023438 -25.351562 7.453125 -25.375 Z M 7.453125 -25.375 "/></g></g></g><g fill="#2c2f32" fill-opacity="1"><g transform="translate(157.06101, 61.377208)"><g><path d="M 5.125 -27.421875 C 5.75 -27.421875 6.285156 -27.191406 6.734375 -26.734375 C 7.191406 -26.285156 7.421875 -25.75 7.421875 -25.125 C 7.421875 -24.5 7.191406 -23.957031 6.734375 -23.5 C 6.285156 -23.050781 5.75 -22.828125 5.125 -22.828125 C 4.5 -22.828125 3.957031 -23.050781 3.5 -23.5 C 3.050781 -23.957031 2.828125 -24.5 2.828125 -25.125 C 2.828125 -25.75 3.050781 -26.285156 3.5 -26.734375 C 3.957031 -27.191406 4.5 -27.421875 5.125 -27.421875 Z M 6.984375 -18.859375 L 6.984375 -3.328125 C 6.984375 -2.328125 7.191406 -1.644531 7.609375 -1.28125 C 8.035156 -0.925781 8.738281 -0.75 9.71875 -0.75 L 9.71875 0 C 9.3125 -0.0195312 8.691406 -0.046875 7.859375 -0.078125 C 7.035156 -0.117188 6.207031 -0.140625 5.375 -0.140625 C 4.5625 -0.140625 3.738281 -0.117188 2.90625 -0.078125 C 2.070312 -0.046875 1.453125 -0.0195312 1.046875 0 L 1.046875 -0.75 C 2.023438 -0.75 2.722656 -0.925781 3.140625 -1.28125 C 3.554688 -1.644531 3.765625 -2.328125 3.765625 -3.328125 L 3.765625 -14.546875 C 3.765625 -15.628906 3.570312 -16.425781 3.1875 -16.9375 C 2.800781 -17.445312 2.085938 -17.703125 1.046875 -17.703125 L 1.046875 -18.453125 C 1.804688 -18.390625 2.546875 -18.359375 3.265625 -18.359375 C 3.953125 -18.359375 4.613281 -18.398438 5.25 -18.484375 C 5.882812 -18.566406 6.460938 -18.691406 6.984375 -18.859375 Z M 6.984375 -18.859375 "/></g></g></g><g fill="#2c2f32" fill-opacity="1"><g transform="translate(169.856155, 61.377208)"><g><path d="M 13.078125 -18.96875 C 13.984375 -18.96875 14.738281 -18.847656 15.34375 -18.609375 C 15.957031 -18.367188 16.46875 -18.03125 16.875 -17.59375 C 17.332031 -17.113281 17.65625 -16.515625 17.84375 -15.796875 C 18.039062 -15.085938 18.140625 -14.125 18.140625 -12.90625 L 18.140625 -3.328125 C 18.140625 -2.328125 18.347656 -1.644531 18.765625 -1.28125 C 19.179688 -0.925781 19.878906 -0.75 20.859375 -0.75 L 20.859375 0 C 20.453125 -0.0195312 19.832031 -0.046875 19 -0.078125 C 18.164062 -0.117188 17.351562 -0.140625 16.5625 -0.140625 C 15.769531 -0.140625 15 -0.117188 14.25 -0.078125 C 13.5 -0.046875 12.929688 -0.0195312 12.546875 0 L 12.546875 -0.75 C 13.398438 -0.75 14.003906 -0.925781 14.359375 -1.28125 C 14.722656 -1.644531 14.90625 -2.328125 14.90625 -3.328125 L 14.90625 -13.6875 C 14.90625 -14.425781 14.84375 -15.109375 14.71875 -15.734375 C 14.601562 -16.359375 14.335938 -16.859375 13.921875 -17.234375 C 13.503906 -17.617188 12.863281 -17.8125 12 -17.8125 C 11 -17.8125 10.125 -17.523438 9.375 -16.953125 C 8.625 -16.378906 8.035156 -15.597656 7.609375 -14.609375 C 7.191406 -13.617188 6.984375 -12.515625 6.984375 -11.296875 L 6.984375 -3.328125 C 6.984375 -2.328125 7.160156 -1.644531 7.515625 -1.28125 C 7.878906 -0.925781 8.492188 -0.75 9.359375 -0.75 L 9.359375 0 C 8.972656 -0.0195312 8.40625 -0.046875 7.65625 -0.078125 C 6.90625 -0.117188 6.132812 -0.140625 5.34375 -0.140625 C 4.550781 -0.140625 3.738281 -0.117188 2.90625 -0.078125 C 2.070312 -0.046875 1.453125 -0.0195312 1.046875 0 L 1.046875 -0.75 C 2.023438 -0.75 2.722656 -0.925781 3.140625 -1.28125 C 3.554688 -1.644531 3.765625 -2.328125 3.765625 -3.328125 L 3.765625 -14.546875 C 3.765625 -15.628906 3.570312 -16.425781 3.1875 -16.9375 C 2.800781 -17.445312 2.085938 -17.703125 1.046875 -17.703125 L 1.046875 -18.453125 C 1.804688 -18.390625 2.546875 -18.359375 3.265625 -18.359375 C 3.953125 -18.359375 4.613281 -18.398438 5.25 -18.484375 C 5.882812 -18.566406 6.460938 -18.691406 6.984375 -18.859375 L 6.984375 -14.625 C 7.609375 -16.25 8.472656 -17.378906 9.578125 -18.015625 C 10.691406 -18.648438 11.859375 -18.96875 13.078125 -18.96875 Z M 13.078125 -18.96875 "/></g></g></g><g fill="#2c2f32" fill-opacity="1"><g transform="translate(193.546893, 61.377208)"><g><path d="M 7.640625 6.734375 C 6.367188 6.734375 5.171875 6.601562 4.046875 6.34375 C 2.921875 6.082031 2.019531 5.671875 1.34375 5.109375 C 0.664062 4.546875 0.328125 3.832031 0.328125 2.96875 C 0.328125 2.132812 0.660156 1.414062 1.328125 0.8125 C 1.992188 0.21875 2.898438 -0.226562 4.046875 -0.53125 L 4.265625 0.03125 C 3.742188 0.195312 3.328125 0.53125 3.015625 1.03125 C 2.703125 1.539062 2.546875 2.101562 2.546875 2.71875 C 2.546875 3.820312 3.050781 4.664062 4.0625 5.25 C 5.082031 5.832031 6.40625 6.125 8.03125 6.125 C 9.101562 6.125 10.148438 5.988281 11.171875 5.71875 C 12.203125 5.445312 13.050781 4.988281 13.71875 4.34375 C 14.394531 3.695312 14.734375 2.847656 14.734375 1.796875 C 14.734375 1.003906 14.453125 0.351562 13.890625 -0.15625 C 13.328125 -0.675781 12.222656 -0.9375 10.578125 -0.9375 L 7.921875 -0.9375 C 7.160156 -0.9375 6.421875 -0.992188 5.703125 -1.109375 C 4.984375 -1.234375 4.394531 -1.484375 3.9375 -1.859375 C 3.488281 -2.242188 3.265625 -2.832031 3.265625 -3.625 C 3.265625 -4.4375 3.597656 -5.21875 4.265625 -5.96875 C 4.929688 -6.71875 6.160156 -7.488281 7.953125 -8.28125 L 8.390625 -7.953125 C 7.578125 -7.523438 6.867188 -7.085938 6.265625 -6.640625 C 5.671875 -6.203125 5.375 -5.6875 5.375 -5.09375 C 5.375 -4.320312 5.945312 -3.9375 7.09375 -3.9375 L 11.578125 -3.9375 C 12.578125 -3.9375 13.5 -3.789062 14.34375 -3.5 C 15.195312 -3.21875 15.882812 -2.765625 16.40625 -2.140625 C 16.9375 -1.523438 17.203125 -0.71875 17.203125 0.28125 C 17.203125 1.40625 16.84375 2.457031 16.125 3.4375 C 15.40625 4.414062 14.332031 5.207031 12.90625 5.8125 C 11.488281 6.425781 9.734375 6.734375 7.640625 6.734375 Z M 7.8125 -7.640625 C 6.644531 -7.640625 5.582031 -7.832031 4.625 -8.21875 C 3.664062 -8.613281 2.910156 -9.226562 2.359375 -10.0625 C 1.816406 -10.90625 1.546875 -11.984375 1.546875 -13.296875 C 1.546875 -14.609375 1.816406 -15.679688 2.359375 -16.515625 C 2.910156 -17.359375 3.664062 -17.976562 4.625 -18.375 C 5.582031 -18.769531 6.644531 -18.96875 7.8125 -18.96875 C 9.007812 -18.96875 10.078125 -18.769531 11.015625 -18.375 C 11.960938 -17.976562 12.710938 -17.359375 13.265625 -16.515625 C 13.816406 -15.679688 14.09375 -14.609375 14.09375 -13.296875 C 14.09375 -11.984375 13.816406 -10.90625 13.265625 -10.0625 C 12.710938 -9.226562 11.960938 -8.613281 11.015625 -8.21875 C 10.078125 -7.832031 9.007812 -7.640625 7.8125 -7.640625 Z M 7.8125 -8.28125 C 8.71875 -8.28125 9.425781 -8.640625 9.9375 -9.359375 C 10.457031 -10.078125 10.71875 -11.390625 10.71875 -13.296875 C 10.71875 -15.210938 10.457031 -16.523438 9.9375 -17.234375 C 9.425781 -17.953125 8.71875 -18.3125 7.8125 -18.3125 C 6.925781 -18.3125 6.21875 -17.953125 5.6875 -17.234375 C 5.164062 -16.523438 4.90625 -15.210938 4.90625 -13.296875 C 4.90625 -11.390625 5.164062 -10.078125 5.6875 -9.359375 C 6.21875 -8.640625 6.925781 -8.28125 7.8125 -8.28125 Z M 12.96875 -15.984375 L 12.328125 -16.234375 C 12.660156 -17.046875 13.234375 -17.757812 14.046875 -18.375 C 14.859375 -19 15.707031 -19.3125 16.59375 -19.3125 C 17.21875 -19.3125 17.71875 -19.140625 18.09375 -18.796875 C 18.476562 -18.453125 18.671875 -17.929688 18.671875 -17.234375 C 18.671875 -16.492188 18.472656 -15.972656 18.078125 -15.671875 C 17.679688 -15.378906 17.28125 -15.234375 16.875 -15.234375 C 16.519531 -15.234375 16.1875 -15.359375 15.875 -15.609375 C 15.5625 -15.859375 15.378906 -16.257812 15.328125 -16.8125 C 15.285156 -17.363281 15.457031 -18.066406 15.84375 -18.921875 L 16.3125 -18.8125 C 15.300781 -18.4375 14.582031 -18.035156 14.15625 -17.609375 C 13.726562 -17.191406 13.332031 -16.648438 12.96875 -15.984375 Z M 12.96875 -15.984375 "/></g></g></g><g fill="#2c2f32" fill-opacity="1"><g transform="translate(214.764625, 61.377208)"><g><path d="M 7.453125 -18.96875 C 8.410156 -18.96875 9.222656 -18.8125 9.890625 -18.5 C 10.554688 -18.1875 11.046875 -17.898438 11.359375 -17.640625 C 12.148438 -16.992188 12.628906 -17.421875 12.796875 -18.921875 L 13.625 -18.921875 C 13.570312 -18.253906 13.535156 -17.457031 13.515625 -16.53125 C 13.492188 -15.613281 13.484375 -14.378906 13.484375 -12.828125 L 12.65625 -12.828125 C 12.507812 -13.710938 12.257812 -14.570312 11.90625 -15.40625 C 11.5625 -16.25 11.054688 -16.9375 10.390625 -17.46875 C 9.722656 -18.007812 8.851562 -18.28125 7.78125 -18.28125 C 6.945312 -18.28125 6.25 -18.046875 5.6875 -17.578125 C 5.125 -17.109375 4.84375 -16.421875 4.84375 -15.515625 C 4.84375 -14.796875 5.054688 -14.179688 5.484375 -13.671875 C 5.910156 -13.160156 6.46875 -12.679688 7.15625 -12.234375 C 7.851562 -11.796875 8.609375 -11.3125 9.421875 -10.78125 C 10.328125 -10.207031 11.148438 -9.625 11.890625 -9.03125 C 12.640625 -8.4375 13.234375 -7.78125 13.671875 -7.0625 C 14.117188 -6.34375 14.34375 -5.492188 14.34375 -4.515625 C 14.34375 -3.421875 14.050781 -2.5 13.46875 -1.75 C 12.894531 -1.007812 12.148438 -0.445312 11.234375 -0.0625 C 10.316406 0.3125 9.304688 0.5 8.203125 0.5 C 7.679688 0.5 7.1875 0.457031 6.71875 0.375 C 6.25 0.289062 5.800781 0.164062 5.375 0 C 5.132812 -0.113281 4.890625 -0.253906 4.640625 -0.421875 C 4.390625 -0.597656 4.144531 -0.78125 3.90625 -0.96875 C 3.664062 -1.15625 3.445312 -1.144531 3.25 -0.9375 C 3.0625 -0.738281 2.921875 -0.34375 2.828125 0.25 L 2 0.25 C 2.050781 -0.507812 2.085938 -1.4375 2.109375 -2.53125 C 2.140625 -3.632812 2.15625 -5.097656 2.15625 -6.921875 L 2.96875 -6.921875 C 3.132812 -5.578125 3.375 -4.40625 3.6875 -3.40625 C 4 -2.40625 4.488281 -1.625 5.15625 -1.0625 C 5.832031 -0.5 6.765625 -0.21875 7.953125 -0.21875 C 8.429688 -0.21875 8.914062 -0.320312 9.40625 -0.53125 C 9.894531 -0.75 10.304688 -1.109375 10.640625 -1.609375 C 10.972656 -2.109375 11.140625 -2.78125 11.140625 -3.625 C 11.140625 -4.675781 10.757812 -5.535156 10 -6.203125 C 9.238281 -6.867188 8.269531 -7.570312 7.09375 -8.3125 C 6.238281 -8.863281 5.429688 -9.410156 4.671875 -9.953125 C 3.921875 -10.503906 3.3125 -11.128906 2.84375 -11.828125 C 2.382812 -12.523438 2.15625 -13.363281 2.15625 -14.34375 C 2.15625 -15.414062 2.398438 -16.289062 2.890625 -16.96875 C 3.378906 -17.65625 4.03125 -18.160156 4.84375 -18.484375 C 5.65625 -18.804688 6.523438 -18.96875 7.453125 -18.96875 Z M 7.453125 -18.96875 "/></g></g></g><g fill="#2c2f32" fill-opacity="1"><g transform="translate(233.079248, 61.377208)"><g/></g></g><g fill="#2c2f32" fill-opacity="1"><g transform="translate(244.297402, 61.377208)"><g><path d="M 9.828125 -18.96875 C 11.347656 -18.96875 12.71875 -18.628906 13.9375 -17.953125 C 15.15625 -17.285156 16.128906 -16.234375 16.859375 -14.796875 C 17.585938 -13.367188 17.953125 -11.507812 17.953125 -9.21875 C 17.953125 -6.914062 17.585938 -5.050781 16.859375 -3.625 C 16.128906 -2.207031 15.15625 -1.164062 13.9375 -0.5 C 12.71875 0.164062 11.347656 0.5 9.828125 0.5 C 8.316406 0.5 6.945312 0.164062 5.71875 -0.5 C 4.488281 -1.164062 3.507812 -2.207031 2.78125 -3.625 C 2.050781 -5.050781 1.6875 -6.914062 1.6875 -9.21875 C 1.6875 -11.507812 2.050781 -13.367188 2.78125 -14.796875 C 3.507812 -16.234375 4.488281 -17.285156 5.71875 -17.953125 C 6.945312 -18.628906 8.316406 -18.96875 9.828125 -18.96875 Z M 9.828125 -18.25 C 8.460938 -18.25 7.34375 -17.539062 6.46875 -16.125 C 5.59375 -14.71875 5.15625 -12.414062 5.15625 -9.21875 C 5.15625 -6.007812 5.59375 -3.707031 6.46875 -2.3125 C 7.34375 -0.914062 8.460938 -0.21875 9.828125 -0.21875 C 11.179688 -0.21875 12.296875 -0.914062 13.171875 -2.3125 C 14.046875 -3.707031 14.484375 -6.007812 14.484375 -9.21875 C 14.484375 -12.414062 14.046875 -14.71875 13.171875 -16.125 C 12.296875 -17.539062 11.179688 -18.25 9.828125 -18.25 Z M 9.828125 -18.25 "/></g></g></g><g fill="#2c2f32" fill-opacity="1"><g transform="translate(266.231942, 61.377208)"><g><path d="M 9.890625 -28.03125 C 10.554688 -28.03125 11.144531 -27.941406 11.65625 -27.765625 C 12.175781 -27.585938 12.628906 -27.351562 13.015625 -27.0625 C 13.367188 -26.769531 13.640625 -26.429688 13.828125 -26.046875 C 14.023438 -25.671875 14.125 -25.269531 14.125 -24.84375 C 14.125 -24.289062 13.941406 -23.832031 13.578125 -23.46875 C 13.222656 -23.113281 12.769531 -22.9375 12.21875 -22.9375 C 11.695312 -22.9375 11.238281 -23.109375 10.84375 -23.453125 C 10.445312 -23.804688 10.25 -24.28125 10.25 -24.875 C 10.25 -25.375 10.382812 -25.78125 10.65625 -26.09375 C 10.9375 -26.40625 11.300781 -26.609375 11.75 -26.703125 C 11.6875 -26.921875 11.503906 -27.109375 11.203125 -27.265625 C 10.898438 -27.421875 10.5 -27.5 10 -27.5 C 9.445312 -27.5 8.972656 -27.378906 8.578125 -27.140625 C 8.191406 -26.898438 7.890625 -26.578125 7.671875 -26.171875 C 7.378906 -25.660156 7.195312 -24.910156 7.125 -23.921875 C 7.0625 -22.929688 7.03125 -21.410156 7.03125 -19.359375 L 7.03125 -18.421875 L 10.859375 -18.421875 L 10.859375 -17.703125 L 7.03125 -17.703125 L 7.03125 -3.6875 C 7.03125 -2.519531 7.367188 -1.738281 8.046875 -1.34375 C 8.722656 -0.945312 9.648438 -0.75 10.828125 -0.75 L 10.828125 0 C 10.273438 -0.0195312 9.492188 -0.046875 8.484375 -0.078125 C 7.484375 -0.117188 6.425781 -0.140625 5.3125 -0.140625 C 4.5 -0.140625 3.691406 -0.117188 2.890625 -0.078125 C 2.085938 -0.046875 1.484375 -0.0195312 1.078125 0 L 1.078125 -0.75 C 2.054688 -0.75 2.753906 -0.925781 3.171875 -1.28125 C 3.585938 -1.644531 3.796875 -2.328125 3.796875 -3.328125 L 3.796875 -17.703125 L 0.9375 -17.703125 L 0.9375 -18.421875 L 3.796875 -18.421875 C 3.796875 -19.828125 3.851562 -21.007812 3.96875 -21.96875 C 4.09375 -22.925781 4.285156 -23.742188 4.546875 -24.421875 C 4.816406 -25.109375 5.175781 -25.710938 5.625 -26.234375 C 6.101562 -26.785156 6.710938 -27.222656 7.453125 -27.546875 C 8.191406 -27.867188 9.003906 -28.03125 9.890625 -28.03125 Z M 9.890625 -28.03125 "/></g></g></g><g fill="#2c2f32" fill-opacity="1"><g transform="translate(280.424881, 61.377208)"><g/></g></g><g fill="#2c2f32" fill-opacity="1"><g transform="translate(291.643034, 61.377208)"><g><path d="M 10.640625 -25.375 L 10.640625 -24.65625 C 9.828125 -24.632812 9.210938 -24.546875 8.796875 -24.390625 C 8.378906 -24.234375 8.097656 -23.945312 7.953125 -23.53125 C 7.816406 -23.113281 7.75 -22.460938 7.75 -21.578125 L 7.75 -3.796875 C 7.75 -2.941406 7.816406 -2.296875 7.953125 -1.859375 C 8.097656 -1.429688 8.378906 -1.148438 8.796875 -1.015625 C 9.210938 -0.890625 9.828125 -0.828125 10.640625 -0.828125 L 13.265625 -0.828125 C 14.390625 -0.828125 15.300781 -0.945312 16 -1.1875 C 16.707031 -1.425781 17.269531 -1.800781 17.6875 -2.3125 C 18.101562 -2.820312 18.421875 -3.503906 18.640625 -4.359375 C 18.859375 -5.222656 19.023438 -6.28125 19.140625 -7.53125 L 19.96875 -7.53125 C 19.894531 -6.789062 19.859375 -5.8125 19.859375 -4.59375 C 19.859375 -4.132812 19.875 -3.476562 19.90625 -2.625 C 19.945312 -1.78125 20.015625 -0.90625 20.109375 0 C 18.890625 -0.0507812 17.515625 -0.0820312 15.984375 -0.09375 C 14.453125 -0.101562 13.09375 -0.109375 11.90625 -0.109375 C 11.375 -0.109375 10.695312 -0.109375 9.875 -0.109375 C 9.050781 -0.109375 8.160156 -0.101562 7.203125 -0.09375 C 6.242188 -0.0820312 5.273438 -0.0664062 4.296875 -0.046875 C 3.316406 -0.0351562 2.382812 -0.0195312 1.5 0 L 1.5 -0.71875 C 2.3125 -0.757812 2.925781 -0.851562 3.34375 -1 C 3.769531 -1.144531 4.050781 -1.429688 4.1875 -1.859375 C 4.332031 -2.296875 4.40625 -2.941406 4.40625 -3.796875 L 4.40625 -21.578125 C 4.40625 -22.460938 4.332031 -23.113281 4.1875 -23.53125 C 4.050781 -23.945312 3.769531 -24.234375 3.34375 -24.390625 C 2.925781 -24.546875 2.3125 -24.632812 1.5 -24.65625 L 1.5 -25.375 C 2.007812 -25.351562 2.671875 -25.328125 3.484375 -25.296875 C 4.296875 -25.273438 5.164062 -25.265625 6.09375 -25.265625 C 6.925781 -25.265625 7.753906 -25.273438 8.578125 -25.296875 C 9.410156 -25.328125 10.097656 -25.351562 10.640625 -25.375 Z M 10.640625 -25.375 "/></g></g></g><g fill="#2c2f32" fill-opacity="1"><g transform="translate(315.011212, 61.377208)"><g><path d="M 9.828125 -18.96875 C 11.347656 -18.96875 12.71875 -18.628906 13.9375 -17.953125 C 15.15625 -17.285156 16.128906 -16.234375 16.859375 -14.796875 C 17.585938 -13.367188 17.953125 -11.507812 17.953125 -9.21875 C 17.953125 -6.914062 17.585938 -5.050781 16.859375 -3.625 C 16.128906 -2.207031 15.15625 -1.164062 13.9375 -0.5 C 12.71875 0.164062 11.347656 0.5 9.828125 0.5 C 8.316406 0.5 6.945312 0.164062 5.71875 -0.5 C 4.488281 -1.164062 3.507812 -2.207031 2.78125 -3.625 C 2.050781 -5.050781 1.6875 -6.914062 1.6875 -9.21875 C 1.6875 -11.507812 2.050781 -13.367188 2.78125 -14.796875 C 3.507812 -16.234375 4.488281 -17.285156 5.71875 -17.953125 C 6.945312 -18.628906 8.316406 -18.96875 9.828125 -18.96875 Z M 9.828125 -18.25 C 8.460938 -18.25 7.34375 -17.539062 6.46875 -16.125 C 5.59375 -14.71875 5.15625 -12.414062 5.15625 -9.21875 C 5.15625 -6.007812 5.59375 -3.707031 6.46875 -2.3125 C 7.34375 -0.914062 8.460938 -0.21875 9.828125 -0.21875 C 11.179688 -0.21875 12.296875 -0.914062 13.171875 -2.3125 C 14.046875 -3.707031 14.484375 -6.007812 14.484375 -9.21875 C 14.484375 -12.414062 14.046875 -14.71875 13.171875 -16.125 C 12.296875 -17.539062 11.179688 -18.25 9.828125 -18.25 Z M 9.828125 -18.25 "/></g></g></g><g fill="#2c2f32" fill-opacity="1"><g transform="translate(336.945752, 61.377208)"><g><path d="M 17.421875 -18.453125 L 17.421875 -17.75 C 16.960938 -17.695312 16.539062 -17.488281 16.15625 -17.125 C 15.78125 -16.769531 15.425781 -16.140625 15.09375 -15.234375 L 9.21875 0.171875 C 9.113281 0.171875 9.015625 0.171875 8.921875 0.171875 C 8.828125 0.171875 8.722656 0.171875 8.609375 0.171875 L 2 -15.703125 C 1.625 -16.628906 1.25 -17.191406 0.875 -17.390625 C 0.507812 -17.597656 0.191406 -17.703125 -0.078125 -17.703125 L -0.078125 -18.453125 C 0.398438 -18.429688 0.894531 -18.398438 1.40625 -18.359375 C 1.925781 -18.328125 2.484375 -18.3125 3.078125 -18.3125 C 3.816406 -18.3125 4.597656 -18.320312 5.421875 -18.34375 C 6.253906 -18.375 7.03125 -18.410156 7.75 -18.453125 L 7.75 -17.703125 C 7.144531 -17.703125 6.609375 -17.660156 6.140625 -17.578125 C 5.679688 -17.492188 5.382812 -17.257812 5.25 -16.875 C 5.113281 -16.5 5.226562 -15.84375 5.59375 -14.90625 L 10.078125 -3.828125 L 9.859375 -3.65625 L 13.9375 -14.375 C 14.25 -15.164062 14.375 -15.789062 14.3125 -16.25 C 14.257812 -16.71875 14.019531 -17.070312 13.59375 -17.3125 C 13.175781 -17.550781 12.539062 -17.695312 11.6875 -17.75 L 11.6875 -18.453125 C 12.113281 -18.429688 12.484375 -18.414062 12.796875 -18.40625 C 13.109375 -18.394531 13.410156 -18.382812 13.703125 -18.375 C 14.003906 -18.363281 14.335938 -18.359375 14.703125 -18.359375 C 15.242188 -18.359375 15.734375 -18.367188 16.171875 -18.390625 C 16.617188 -18.410156 17.035156 -18.429688 17.421875 -18.453125 Z M 17.421875 -18.453125 "/></g></g></g><g fill="#2c2f32" fill-opacity="1"><g transform="translate(356.76569, 61.377208)"><g><path d="M 9.75 -18.96875 C 11.851562 -18.96875 13.492188 -18.328125 14.671875 -17.046875 C 15.859375 -15.765625 16.453125 -13.773438 16.453125 -11.078125 L 3.796875 -11.078125 L 3.765625 -11.75 L 13.015625 -11.75 C 13.054688 -12.925781 12.957031 -14.007812 12.71875 -15 C 12.476562 -15.988281 12.101562 -16.78125 11.59375 -17.375 C 11.082031 -17.976562 10.421875 -18.28125 9.609375 -18.28125 C 8.503906 -18.28125 7.523438 -17.726562 6.671875 -16.625 C 5.828125 -15.53125 5.320312 -13.785156 5.15625 -11.390625 L 5.265625 -11.25 C 5.222656 -10.894531 5.1875 -10.5 5.15625 -10.0625 C 5.132812 -9.632812 5.125 -9.207031 5.125 -8.78125 C 5.125 -7.15625 5.382812 -5.753906 5.90625 -4.578125 C 6.4375 -3.410156 7.125 -2.519531 7.96875 -1.90625 C 8.820312 -1.300781 9.703125 -1 10.609375 -1 C 11.328125 -1 12.007812 -1.113281 12.65625 -1.34375 C 13.300781 -1.570312 13.894531 -1.945312 14.4375 -2.46875 C 14.988281 -3 15.46875 -3.707031 15.875 -4.59375 L 16.59375 -4.296875 C 16.332031 -3.515625 15.898438 -2.75 15.296875 -2 C 14.703125 -1.257812 13.953125 -0.65625 13.046875 -0.1875 C 12.140625 0.269531 11.085938 0.5 9.890625 0.5 C 8.171875 0.5 6.695312 0.109375 5.46875 -0.671875 C 4.238281 -1.460938 3.296875 -2.554688 2.640625 -3.953125 C 1.984375 -5.359375 1.65625 -6.96875 1.65625 -8.78125 C 1.65625 -10.882812 1.988281 -12.691406 2.65625 -14.203125 C 3.320312 -15.722656 4.265625 -16.894531 5.484375 -17.71875 C 6.703125 -18.550781 8.125 -18.96875 9.75 -18.96875 Z M 9.75 -18.96875 "/></g></g></g><g fill="#2c2f32" fill-opacity="1"><g transform="translate(131.66482, 81.686941)"><g><path d="M 0.46875 -8.46875 C 0.644531 -8.457031 0.878906 -8.445312 1.171875 -8.4375 C 1.460938 -8.425781 1.753906 -8.421875 2.046875 -8.421875 C 2.429688 -8.421875 2.796875 -8.425781 3.140625 -8.4375 C 3.484375 -8.445312 3.726562 -8.453125 3.875 -8.453125 C 4.882812 -8.453125 5.640625 -8.234375 6.140625 -7.796875 C 6.640625 -7.359375 6.890625 -6.789062 6.890625 -6.09375 C 6.890625 -5.8125 6.835938 -5.507812 6.734375 -5.1875 C 6.640625 -4.875 6.46875 -4.582031 6.21875 -4.3125 C 5.976562 -4.050781 5.644531 -3.835938 5.21875 -3.671875 C 4.800781 -3.503906 4.265625 -3.421875 3.609375 -3.421875 L 2.4375 -3.421875 L 2.4375 -3.65625 L 3.484375 -3.65625 C 4.023438 -3.65625 4.4375 -3.757812 4.71875 -3.96875 C 5 -4.1875 5.1875 -4.472656 5.28125 -4.828125 C 5.382812 -5.179688 5.4375 -5.5625 5.4375 -5.96875 C 5.4375 -6.71875 5.300781 -7.28125 5.03125 -7.65625 C 4.757812 -8.03125 4.289062 -8.21875 3.625 -8.21875 C 3.28125 -8.21875 3.050781 -8.148438 2.9375 -8.015625 C 2.832031 -7.878906 2.78125 -7.609375 2.78125 -7.203125 L 2.78125 -1.296875 C 2.78125 -0.992188 2.8125 -0.769531 2.875 -0.625 C 2.9375 -0.476562 3.054688 -0.378906 3.234375 -0.328125 C 3.410156 -0.285156 3.671875 -0.257812 4.015625 -0.25 L 4.015625 0 C 3.796875 -0.0195312 3.515625 -0.03125 3.171875 -0.03125 C 2.835938 -0.03125 2.484375 -0.03125 2.109375 -0.03125 C 1.796875 -0.03125 1.492188 -0.03125 1.203125 -0.03125 C 0.910156 -0.03125 0.664062 -0.0195312 0.46875 0 L 0.46875 -0.234375 C 0.738281 -0.253906 0.941406 -0.285156 1.078125 -0.328125 C 1.210938 -0.378906 1.300781 -0.476562 1.34375 -0.625 C 1.382812 -0.769531 1.40625 -0.984375 1.40625 -1.265625 L 1.40625 -7.203125 C 1.40625 -7.492188 1.382812 -7.707031 1.34375 -7.84375 C 1.300781 -7.988281 1.207031 -8.085938 1.0625 -8.140625 C 0.925781 -8.191406 0.726562 -8.21875 0.46875 -8.21875 Z M 0.46875 -8.46875 "/></g></g></g><g fill="#2c2f32" fill-opacity="1"><g transform="translate(147.685622, 81.686941)"><g><path d="M 5.484375 0 L 5.484375 -0.234375 C 5.753906 -0.253906 5.957031 -0.285156 6.09375 -0.328125 C 6.226562 -0.378906 6.316406 -0.476562 6.359375 -0.625 C 6.410156 -0.769531 6.4375 -0.984375 6.4375 -1.265625 L 6.4375 -7.203125 C 6.4375 -7.492188 6.410156 -7.707031 6.359375 -7.84375 C 6.316406 -7.988281 6.222656 -8.085938 6.078125 -8.140625 C 5.941406 -8.191406 5.742188 -8.21875 5.484375 -8.21875 L 5.484375 -8.46875 C 5.679688 -8.457031 5.929688 -8.445312 6.234375 -8.4375 C 6.535156 -8.425781 6.832031 -8.421875 7.125 -8.421875 C 7.457031 -8.421875 7.765625 -8.425781 8.046875 -8.4375 C 8.335938 -8.445312 8.570312 -8.457031 8.75 -8.46875 L 8.75 -8.21875 C 8.488281 -8.21875 8.289062 -8.191406 8.15625 -8.140625 C 8.019531 -8.085938 7.925781 -7.988281 7.875 -7.84375 C 7.832031 -7.707031 7.8125 -7.492188 7.8125 -7.203125 L 7.8125 -1.265625 C 7.8125 -0.984375 7.832031 -0.769531 7.875 -0.625 C 7.925781 -0.476562 8.019531 -0.378906 8.15625 -0.328125 C 8.289062 -0.285156 8.488281 -0.253906 8.75 -0.234375 L 8.75 0 C 8.570312 -0.0195312 8.335938 -0.03125 8.046875 -0.03125 C 7.765625 -0.03125 7.457031 -0.03125 7.125 -0.03125 C 6.832031 -0.03125 6.535156 -0.03125 6.234375 -0.03125 C 5.929688 -0.03125 5.679688 -0.0195312 5.484375 0 Z M 0.46875 0 L 0.46875 -0.234375 C 0.738281 -0.253906 0.941406 -0.285156 1.078125 -0.328125 C 1.210938 -0.378906 1.300781 -0.476562 1.34375 -0.625 C 1.382812 -0.769531 1.40625 -0.984375 1.40625 -1.265625 L 1.40625 -7.203125 C 1.40625 -7.492188 1.382812 -7.707031 1.34375 -7.84375 C 1.300781 -7.988281 1.207031 -8.085938 1.0625 -8.140625 C 0.925781 -8.191406 0.726562 -8.21875 0.46875 -8.21875 L 0.46875 -8.46875 C 0.644531 -8.457031 0.878906 -8.445312 1.171875 -8.4375 C 1.460938 -8.425781 1.773438 -8.421875 2.109375 -8.421875 C 2.410156 -8.421875 2.707031 -8.425781 3 -8.4375 C 3.289062 -8.445312 3.535156 -8.457031 3.734375 -8.46875 L 3.734375 -8.21875 C 3.460938 -8.21875 3.257812 -8.191406 3.125 -8.140625 C 2.988281 -8.085938 2.894531 -7.988281 2.84375 -7.84375 C 2.800781 -7.707031 2.78125 -7.492188 2.78125 -7.203125 L 2.78125 -1.265625 C 2.78125 -0.984375 2.800781 -0.769531 2.84375 -0.625 C 2.894531 -0.476562 2.988281 -0.378906 3.125 -0.328125 C 3.257812 -0.285156 3.460938 -0.253906 3.734375 -0.234375 L 3.734375 0 C 3.535156 -0.0195312 3.289062 -0.03125 3 -0.03125 C 2.707031 -0.03125 2.410156 -0.03125 2.109375 -0.03125 C 1.773438 -0.03125 1.460938 -0.03125 1.171875 -0.03125 C 0.878906 -0.03125 0.644531 -0.0195312 0.46875 0 Z M 2.25 -4.140625 L 2.25 -4.375 L 6.96875 -4.375 L 6.96875 -4.140625 Z M 2.25 -4.140625 "/></g></g></g><g fill="#2c2f32" fill-opacity="1"><g transform="translate(165.701566, 81.686941)"><g><path d="M 4.546875 -8.625 C 5.328125 -8.625 6.015625 -8.453125 6.609375 -8.109375 C 7.203125 -7.773438 7.660156 -7.285156 7.984375 -6.640625 C 8.304688 -5.992188 8.46875 -5.210938 8.46875 -4.296875 C 8.46875 -3.410156 8.300781 -2.628906 7.96875 -1.953125 C 7.632812 -1.285156 7.164062 -0.765625 6.5625 -0.390625 C 5.96875 -0.015625 5.289062 0.171875 4.53125 0.171875 C 3.738281 0.171875 3.046875 0 2.453125 -0.34375 C 1.867188 -0.6875 1.410156 -1.179688 1.078125 -1.828125 C 0.753906 -2.472656 0.59375 -3.25 0.59375 -4.15625 C 0.59375 -5.050781 0.757812 -5.832031 1.09375 -6.5 C 1.4375 -7.164062 1.898438 -7.6875 2.484375 -8.0625 C 3.078125 -8.4375 3.765625 -8.625 4.546875 -8.625 Z M 4.5 -8.421875 C 4 -8.421875 3.566406 -8.238281 3.203125 -7.875 C 2.835938 -7.519531 2.554688 -7.023438 2.359375 -6.390625 C 2.160156 -5.765625 2.0625 -5.035156 2.0625 -4.203125 C 2.0625 -3.359375 2.171875 -2.625 2.390625 -2 C 2.609375 -1.375 2.910156 -0.890625 3.296875 -0.546875 C 3.679688 -0.210938 4.109375 -0.046875 4.578125 -0.046875 C 5.066406 -0.046875 5.492188 -0.222656 5.859375 -0.578125 C 6.222656 -0.941406 6.503906 -1.441406 6.703125 -2.078125 C 6.910156 -2.710938 7.015625 -3.4375 7.015625 -4.25 C 7.015625 -5.101562 6.898438 -5.84375 6.671875 -6.46875 C 6.441406 -7.09375 6.140625 -7.570312 5.765625 -7.90625 C 5.390625 -8.25 4.96875 -8.421875 4.5 -8.421875 Z M 4.5 -8.421875 "/></g></g></g><g fill="#2c2f32" fill-opacity="1"><g transform="translate(183.562194, 81.686941)"><g><path d="M 7.28125 -8.46875 C 7.25 -8.125 7.226562 -7.796875 7.21875 -7.484375 C 7.207031 -7.171875 7.203125 -6.929688 7.203125 -6.765625 C 7.203125 -6.578125 7.203125 -6.398438 7.203125 -6.234375 C 7.210938 -6.066406 7.222656 -5.925781 7.234375 -5.8125 L 6.953125 -5.8125 C 6.878906 -6.40625 6.773438 -6.875 6.640625 -7.21875 C 6.503906 -7.5625 6.3125 -7.804688 6.0625 -7.953125 C 5.820312 -8.109375 5.472656 -8.1875 5.015625 -8.1875 L 4.5 -8.1875 L 4.5 -1.375 C 4.5 -1.050781 4.523438 -0.8125 4.578125 -0.65625 C 4.640625 -0.5 4.757812 -0.394531 4.9375 -0.34375 C 5.125 -0.289062 5.382812 -0.253906 5.71875 -0.234375 L 5.71875 0 C 5.5 -0.0195312 5.210938 -0.03125 4.859375 -0.03125 C 4.515625 -0.03125 4.160156 -0.03125 3.796875 -0.03125 C 3.410156 -0.03125 3.046875 -0.03125 2.703125 -0.03125 C 2.367188 -0.03125 2.097656 -0.0195312 1.890625 0 L 1.890625 -0.234375 C 2.234375 -0.253906 2.488281 -0.289062 2.65625 -0.34375 C 2.832031 -0.394531 2.953125 -0.5 3.015625 -0.65625 C 3.085938 -0.8125 3.125 -1.050781 3.125 -1.375 L 3.125 -8.1875 L 2.59375 -8.1875 C 2.144531 -8.1875 1.789062 -8.109375 1.53125 -7.953125 C 1.28125 -7.804688 1.09375 -7.5625 0.96875 -7.21875 C 0.84375 -6.875 0.738281 -6.40625 0.65625 -5.8125 L 0.375 -5.8125 C 0.394531 -5.925781 0.40625 -6.066406 0.40625 -6.234375 C 0.414062 -6.398438 0.421875 -6.578125 0.421875 -6.765625 C 0.421875 -6.929688 0.410156 -7.171875 0.390625 -7.484375 C 0.378906 -7.796875 0.359375 -8.125 0.328125 -8.46875 C 0.671875 -8.457031 1.046875 -8.445312 1.453125 -8.4375 C 1.859375 -8.425781 2.269531 -8.421875 2.6875 -8.421875 C 3.101562 -8.421875 3.476562 -8.421875 3.8125 -8.421875 C 4.144531 -8.421875 4.515625 -8.421875 4.921875 -8.421875 C 5.328125 -8.421875 5.738281 -8.425781 6.15625 -8.4375 C 6.570312 -8.445312 6.945312 -8.457031 7.28125 -8.46875 Z M 7.28125 -8.46875 "/></g></g></g><g fill="#2c2f32" fill-opacity="1"><g transform="translate(199.977244, 81.686941)"><g><path d="M 4.546875 -8.625 C 5.328125 -8.625 6.015625 -8.453125 6.609375 -8.109375 C 7.203125 -7.773438 7.660156 -7.285156 7.984375 -6.640625 C 8.304688 -5.992188 8.46875 -5.210938 8.46875 -4.296875 C 8.46875 -3.410156 8.300781 -2.628906 7.96875 -1.953125 C 7.632812 -1.285156 7.164062 -0.765625 6.5625 -0.390625 C 5.96875 -0.015625 5.289062 0.171875 4.53125 0.171875 C 3.738281 0.171875 3.046875 0 2.453125 -0.34375 C 1.867188 -0.6875 1.410156 -1.179688 1.078125 -1.828125 C 0.753906 -2.472656 0.59375 -3.25 0.59375 -4.15625 C 0.59375 -5.050781 0.757812 -5.832031 1.09375 -6.5 C 1.4375 -7.164062 1.898438 -7.6875 2.484375 -8.0625 C 3.078125 -8.4375 3.765625 -8.625 4.546875 -8.625 Z M 4.5 -8.421875 C 4 -8.421875 3.566406 -8.238281 3.203125 -7.875 C 2.835938 -7.519531 2.554688 -7.023438 2.359375 -6.390625 C 2.160156 -5.765625 2.0625 -5.035156 2.0625 -4.203125 C 2.0625 -3.359375 2.171875 -2.625 2.390625 -2 C 2.609375 -1.375 2.910156 -0.890625 3.296875 -0.546875 C 3.679688 -0.210938 4.109375 -0.046875 4.578125 -0.046875 C 5.066406 -0.046875 5.492188 -0.222656 5.859375 -0.578125 C 6.222656 -0.941406 6.503906 -1.441406 6.703125 -2.078125 C 6.910156 -2.710938 7.015625 -3.4375 7.015625 -4.25 C 7.015625 -5.101562 6.898438 -5.84375 6.671875 -6.46875 C 6.441406 -7.09375 6.140625 -7.570312 5.765625 -7.90625 C 5.390625 -8.25 4.96875 -8.421875 4.5 -8.421875 Z M 4.5 -8.421875 "/></g></g></g><g fill="#2c2f32" fill-opacity="1"><g transform="translate(217.837872, 81.686941)"><g><path d="M 4.609375 -8.625 C 5.140625 -8.625 5.566406 -8.546875 5.890625 -8.390625 C 6.222656 -8.234375 6.523438 -8.054688 6.796875 -7.859375 C 6.890625 -7.773438 6.96875 -7.734375 7.03125 -7.734375 C 7.175781 -7.734375 7.273438 -7.976562 7.328125 -8.46875 L 7.609375 -8.46875 C 7.585938 -8.164062 7.570312 -7.800781 7.5625 -7.375 C 7.550781 -6.945312 7.546875 -6.378906 7.546875 -5.671875 L 7.28125 -5.671875 C 7.226562 -6.046875 7.15625 -6.394531 7.0625 -6.71875 C 6.96875 -7.050781 6.8125 -7.332031 6.59375 -7.5625 C 6.375 -7.820312 6.085938 -8.019531 5.734375 -8.15625 C 5.390625 -8.300781 5.039062 -8.375 4.6875 -8.375 C 4.269531 -8.375 3.898438 -8.269531 3.578125 -8.0625 C 3.265625 -7.863281 3 -7.578125 2.78125 -7.203125 C 2.5625 -6.828125 2.394531 -6.382812 2.28125 -5.875 C 2.164062 -5.375 2.109375 -4.820312 2.109375 -4.21875 C 2.109375 -2.78125 2.328125 -1.726562 2.765625 -1.0625 C 3.210938 -0.40625 3.878906 -0.078125 4.765625 -0.078125 C 5.023438 -0.078125 5.25 -0.109375 5.4375 -0.171875 C 5.625 -0.242188 5.769531 -0.316406 5.875 -0.390625 C 6.007812 -0.484375 6.097656 -0.578125 6.140625 -0.671875 C 6.179688 -0.765625 6.203125 -0.890625 6.203125 -1.046875 L 6.203125 -2.203125 C 6.203125 -2.546875 6.171875 -2.796875 6.109375 -2.953125 C 6.054688 -3.117188 5.941406 -3.226562 5.765625 -3.28125 C 5.585938 -3.34375 5.332031 -3.378906 5 -3.390625 L 5 -3.640625 C 5.144531 -3.628906 5.320312 -3.617188 5.53125 -3.609375 C 5.738281 -3.609375 5.957031 -3.601562 6.1875 -3.59375 C 6.414062 -3.59375 6.617188 -3.59375 6.796875 -3.59375 C 7.085938 -3.59375 7.347656 -3.597656 7.578125 -3.609375 C 7.816406 -3.617188 8.007812 -3.628906 8.15625 -3.640625 L 8.15625 -3.390625 C 7.988281 -3.378906 7.863281 -3.347656 7.78125 -3.296875 C 7.695312 -3.253906 7.640625 -3.160156 7.609375 -3.015625 C 7.585938 -2.878906 7.578125 -2.660156 7.578125 -2.359375 L 7.578125 0 L 7.34375 0 C 7.332031 -0.132812 7.300781 -0.28125 7.25 -0.4375 C 7.195312 -0.601562 7.117188 -0.6875 7.015625 -0.6875 C 6.960938 -0.6875 6.90625 -0.671875 6.84375 -0.640625 C 6.78125 -0.617188 6.675781 -0.5625 6.53125 -0.46875 C 6.257812 -0.269531 5.972656 -0.113281 5.671875 0 C 5.367188 0.113281 5.023438 0.171875 4.640625 0.171875 C 3.785156 0.171875 3.054688 0.00390625 2.453125 -0.328125 C 1.847656 -0.671875 1.382812 -1.160156 1.0625 -1.796875 C 0.75 -2.441406 0.59375 -3.207031 0.59375 -4.09375 C 0.59375 -5.019531 0.765625 -5.820312 1.109375 -6.5 C 1.460938 -7.175781 1.9375 -7.695312 2.53125 -8.0625 C 3.132812 -8.4375 3.828125 -8.625 4.609375 -8.625 Z M 4.609375 -8.625 "/></g></g></g><g fill="#2c2f32" fill-opacity="1"><g transform="translate(235.17284, 81.686941)"><g><path d="M 0.46875 -8.46875 C 0.644531 -8.457031 0.878906 -8.445312 1.171875 -8.4375 C 1.460938 -8.425781 1.753906 -8.421875 2.046875 -8.421875 C 2.429688 -8.421875 2.796875 -8.425781 3.140625 -8.4375 C 3.484375 -8.445312 3.726562 -8.453125 3.875 -8.453125 C 4.550781 -8.453125 5.113281 -8.363281 5.5625 -8.1875 C 6.007812 -8.007812 6.34375 -7.765625 6.5625 -7.453125 C 6.78125 -7.140625 6.890625 -6.78125 6.890625 -6.375 C 6.890625 -6.125 6.835938 -5.859375 6.734375 -5.578125 C 6.640625 -5.304688 6.46875 -5.050781 6.21875 -4.8125 C 5.976562 -4.582031 5.644531 -4.390625 5.21875 -4.234375 C 4.800781 -4.085938 4.265625 -4.015625 3.609375 -4.015625 L 2.46875 -4.015625 L 2.46875 -4.25 L 3.484375 -4.25 C 4.023438 -4.25 4.4375 -4.335938 4.71875 -4.515625 C 5 -4.703125 5.1875 -4.941406 5.28125 -5.234375 C 5.382812 -5.535156 5.4375 -5.867188 5.4375 -6.234375 C 5.4375 -6.867188 5.300781 -7.359375 5.03125 -7.703125 C 4.757812 -8.046875 4.289062 -8.21875 3.625 -8.21875 C 3.28125 -8.21875 3.050781 -8.148438 2.9375 -8.015625 C 2.832031 -7.878906 2.78125 -7.609375 2.78125 -7.203125 L 2.78125 -1.265625 C 2.78125 -0.984375 2.800781 -0.769531 2.84375 -0.625 C 2.894531 -0.476562 2.988281 -0.378906 3.125 -0.328125 C 3.257812 -0.285156 3.460938 -0.253906 3.734375 -0.234375 L 3.734375 0 C 3.535156 -0.0195312 3.289062 -0.03125 3 -0.03125 C 2.707031 -0.03125 2.410156 -0.03125 2.109375 -0.03125 C 1.773438 -0.03125 1.460938 -0.03125 1.171875 -0.03125 C 0.878906 -0.03125 0.644531 -0.0195312 0.46875 0 L 0.46875 -0.234375 C 0.738281 -0.253906 0.941406 -0.285156 1.078125 -0.328125 C 1.210938 -0.378906 1.300781 -0.476562 1.34375 -0.625 C 1.382812 -0.769531 1.40625 -0.984375 1.40625 -1.265625 L 1.40625 -7.203125 C 1.40625 -7.492188 1.382812 -7.707031 1.34375 -7.84375 C 1.300781 -7.988281 1.207031 -8.085938 1.0625 -8.140625 C 0.925781 -8.191406 0.726562 -8.21875 0.46875 -8.21875 Z M 2.484375 -4.21875 C 2.890625 -4.207031 3.21875 -4.191406 3.46875 -4.171875 C 3.71875 -4.148438 3.925781 -4.128906 4.09375 -4.109375 C 4.257812 -4.097656 4.410156 -4.078125 4.546875 -4.046875 C 5.148438 -3.972656 5.585938 -3.816406 5.859375 -3.578125 C 6.140625 -3.335938 6.332031 -2.96875 6.4375 -2.46875 L 6.734375 -1.25 C 6.804688 -0.90625 6.882812 -0.660156 6.96875 -0.515625 C 7.050781 -0.378906 7.175781 -0.3125 7.34375 -0.3125 C 7.46875 -0.320312 7.570312 -0.359375 7.65625 -0.421875 C 7.738281 -0.492188 7.828125 -0.585938 7.921875 -0.703125 L 8.09375 -0.578125 C 7.90625 -0.328125 7.710938 -0.140625 7.515625 -0.015625 C 7.316406 0.109375 7.050781 0.171875 6.71875 0.171875 C 6.375 0.171875 6.078125 0.0820312 5.828125 -0.09375 C 5.585938 -0.28125 5.414062 -0.625 5.3125 -1.125 L 5.078125 -2.3125 C 5.003906 -2.65625 4.921875 -2.953125 4.828125 -3.203125 C 4.742188 -3.453125 4.625 -3.648438 4.46875 -3.796875 C 4.320312 -3.941406 4.097656 -4.015625 3.796875 -4.015625 L 2.515625 -4.015625 Z M 2.484375 -4.21875 "/></g></g></g><g fill="#2c2f32" fill-opacity="1"><g transform="translate(251.89851, 81.686941)"><g><path d="M 4.046875 -8.515625 L 6.953125 -1 C 7.066406 -0.707031 7.195312 -0.507812 7.34375 -0.40625 C 7.488281 -0.300781 7.625 -0.242188 7.75 -0.234375 L 7.75 0 C 7.5625 -0.0195312 7.335938 -0.03125 7.078125 -0.03125 C 6.816406 -0.03125 6.554688 -0.03125 6.296875 -0.03125 C 5.960938 -0.03125 5.648438 -0.03125 5.359375 -0.03125 C 5.078125 -0.03125 4.847656 -0.0195312 4.671875 0 L 4.671875 -0.234375 C 5.078125 -0.253906 5.332031 -0.328125 5.4375 -0.453125 C 5.550781 -0.578125 5.523438 -0.84375 5.359375 -1.25 L 3.21875 -7.046875 L 3.40625 -7.265625 L 1.421875 -2.078125 C 1.273438 -1.722656 1.1875 -1.425781 1.15625 -1.1875 C 1.132812 -0.945312 1.15625 -0.757812 1.21875 -0.625 C 1.289062 -0.488281 1.410156 -0.390625 1.578125 -0.328125 C 1.742188 -0.273438 1.953125 -0.242188 2.203125 -0.234375 L 2.203125 0 C 1.960938 -0.0195312 1.71875 -0.03125 1.46875 -0.03125 C 1.226562 -0.03125 1 -0.03125 0.78125 -0.03125 C 0.59375 -0.03125 0.425781 -0.03125 0.28125 -0.03125 C 0.132812 -0.03125 0 -0.0195312 -0.125 0 L -0.125 -0.234375 C 0.0390625 -0.273438 0.207031 -0.375 0.375 -0.53125 C 0.550781 -0.695312 0.710938 -0.96875 0.859375 -1.34375 L 3.640625 -8.515625 C 3.703125 -8.515625 3.765625 -8.515625 3.828125 -8.515625 C 3.898438 -8.515625 3.972656 -8.515625 4.046875 -8.515625 Z M 5.296875 -3.4375 L 5.296875 -3.203125 L 1.734375 -3.203125 L 1.859375 -3.4375 Z M 5.296875 -3.4375 "/></g></g></g><g fill="#2c2f32" fill-opacity="1"><g transform="translate(268.373295, 81.686941)"><g><path d="M 0.46875 -8.46875 C 0.644531 -8.457031 0.878906 -8.445312 1.171875 -8.4375 C 1.460938 -8.425781 1.753906 -8.421875 2.046875 -8.421875 C 2.429688 -8.421875 2.796875 -8.425781 3.140625 -8.4375 C 3.484375 -8.445312 3.726562 -8.453125 3.875 -8.453125 C 4.882812 -8.453125 5.640625 -8.234375 6.140625 -7.796875 C 6.640625 -7.359375 6.890625 -6.789062 6.890625 -6.09375 C 6.890625 -5.8125 6.835938 -5.507812 6.734375 -5.1875 C 6.640625 -4.875 6.46875 -4.582031 6.21875 -4.3125 C 5.976562 -4.050781 5.644531 -3.835938 5.21875 -3.671875 C 4.800781 -3.503906 4.265625 -3.421875 3.609375 -3.421875 L 2.4375 -3.421875 L 2.4375 -3.65625 L 3.484375 -3.65625 C 4.023438 -3.65625 4.4375 -3.757812 4.71875 -3.96875 C 5 -4.1875 5.1875 -4.472656 5.28125 -4.828125 C 5.382812 -5.179688 5.4375 -5.5625 5.4375 -5.96875 C 5.4375 -6.71875 5.300781 -7.28125 5.03125 -7.65625 C 4.757812 -8.03125 4.289062 -8.21875 3.625 -8.21875 C 3.28125 -8.21875 3.050781 -8.148438 2.9375 -8.015625 C 2.832031 -7.878906 2.78125 -7.609375 2.78125 -7.203125 L 2.78125 -1.296875 C 2.78125 -0.992188 2.8125 -0.769531 2.875 -0.625 C 2.9375 -0.476562 3.054688 -0.378906 3.234375 -0.328125 C 3.410156 -0.285156 3.671875 -0.257812 4.015625 -0.25 L 4.015625 0 C 3.796875 -0.0195312 3.515625 -0.03125 3.171875 -0.03125 C 2.835938 -0.03125 2.484375 -0.03125 2.109375 -0.03125 C 1.796875 -0.03125 1.492188 -0.03125 1.203125 -0.03125 C 0.910156 -0.03125 0.664062 -0.0195312 0.46875 0 L 0.46875 -0.234375 C 0.738281 -0.253906 0.941406 -0.285156 1.078125 -0.328125 C 1.210938 -0.378906 1.300781 -0.476562 1.34375 -0.625 C 1.382812 -0.769531 1.40625 -0.984375 1.40625 -1.265625 L 1.40625 -7.203125 C 1.40625 -7.492188 1.382812 -7.707031 1.34375 -7.84375 C 1.300781 -7.988281 1.207031 -8.085938 1.0625 -8.140625 C 0.925781 -8.191406 0.726562 -8.21875 0.46875 -8.21875 Z M 0.46875 -8.46875 "/></g></g></g><g fill="#2c2f32" fill-opacity="1"><g transform="translate(284.394097, 81.686941)"><g><path d="M 5.484375 0 L 5.484375 -0.234375 C 5.753906 -0.253906 5.957031 -0.285156 6.09375 -0.328125 C 6.226562 -0.378906 6.316406 -0.476562 6.359375 -0.625 C 6.410156 -0.769531 6.4375 -0.984375 6.4375 -1.265625 L 6.4375 -7.203125 C 6.4375 -7.492188 6.410156 -7.707031 6.359375 -7.84375 C 6.316406 -7.988281 6.222656 -8.085938 6.078125 -8.140625 C 5.941406 -8.191406 5.742188 -8.21875 5.484375 -8.21875 L 5.484375 -8.46875 C 5.679688 -8.457031 5.929688 -8.445312 6.234375 -8.4375 C 6.535156 -8.425781 6.832031 -8.421875 7.125 -8.421875 C 7.457031 -8.421875 7.765625 -8.425781 8.046875 -8.4375 C 8.335938 -8.445312 8.570312 -8.457031 8.75 -8.46875 L 8.75 -8.21875 C 8.488281 -8.21875 8.289062 -8.191406 8.15625 -8.140625 C 8.019531 -8.085938 7.925781 -7.988281 7.875 -7.84375 C 7.832031 -7.707031 7.8125 -7.492188 7.8125 -7.203125 L 7.8125 -1.265625 C 7.8125 -0.984375 7.832031 -0.769531 7.875 -0.625 C 7.925781 -0.476562 8.019531 -0.378906 8.15625 -0.328125 C 8.289062 -0.285156 8.488281 -0.253906 8.75 -0.234375 L 8.75 0 C 8.570312 -0.0195312 8.335938 -0.03125 8.046875 -0.03125 C 7.765625 -0.03125 7.457031 -0.03125 7.125 -0.03125 C 6.832031 -0.03125 6.535156 -0.03125 6.234375 -0.03125 C 5.929688 -0.03125 5.679688 -0.0195312 5.484375 0 Z M 0.46875 0 L 0.46875 -0.234375 C 0.738281 -0.253906 0.941406 -0.285156 1.078125 -0.328125 C 1.210938 -0.378906 1.300781 -0.476562 1.34375 -0.625 C 1.382812 -0.769531 1.40625 -0.984375 1.40625 -1.265625 L 1.40625 -7.203125 C 1.40625 -7.492188 1.382812 -7.707031 1.34375 -7.84375 C 1.300781 -7.988281 1.207031 -8.085938 1.0625 -8.140625 C 0.925781 -8.191406 0.726562 -8.21875 0.46875 -8.21875 L 0.46875 -8.46875 C 0.644531 -8.457031 0.878906 -8.445312 1.171875 -8.4375 C 1.460938 -8.425781 1.773438 -8.421875 2.109375 -8.421875 C 2.410156 -8.421875 2.707031 -8.425781 3 -8.4375 C 3.289062 -8.445312 3.535156 -8.457031 3.734375 -8.46875 L 3.734375 -8.21875 C 3.460938 -8.21875 3.257812 -8.191406 3.125 -8.140625 C 2.988281 -8.085938 2.894531 -7.988281 2.84375 -7.84375 C 2.800781 -7.707031 2.78125 -7.492188 2.78125 -7.203125 L 2.78125 -1.265625 C 2.78125 -0.984375 2.800781 -0.769531 2.84375 -0.625 C 2.894531 -0.476562 2.988281 -0.378906 3.125 -0.328125 C 3.257812 -0.285156 3.460938 -0.253906 3.734375 -0.234375 L 3.734375 0 C 3.535156 -0.0195312 3.289062 -0.03125 3 -0.03125 C 2.707031 -0.03125 2.410156 -0.03125 2.109375 -0.03125 C 1.773438 -0.03125 1.460938 -0.03125 1.171875 -0.03125 C 0.878906 -0.03125 0.644531 -0.0195312 0.46875 0 Z M 2.25 -4.140625 L 2.25 -4.375 L 6.96875 -4.375 L 6.96875 -4.140625 Z M 2.25 -4.140625 "/></g></g></g><g fill="#2c2f32" fill-opacity="1"><g transform="translate(302.410041, 81.686941)"><g><path d="M 7.140625 -8.46875 L 7.140625 -8.21875 C 6.984375 -8.175781 6.820312 -8.066406 6.65625 -7.890625 C 6.5 -7.710938 6.320312 -7.429688 6.125 -7.046875 L 3.765625 -2.375 L 3.4375 -2.375 L 0.640625 -7.546875 C 0.484375 -7.828125 0.347656 -8.007812 0.234375 -8.09375 C 0.128906 -8.175781 0.0351562 -8.21875 -0.046875 -8.21875 L -0.046875 -8.46875 C 0.128906 -8.457031 0.3125 -8.445312 0.5 -8.4375 C 0.6875 -8.425781 0.894531 -8.421875 1.125 -8.421875 C 1.40625 -8.421875 1.710938 -8.421875 2.046875 -8.421875 C 2.390625 -8.429688 2.703125 -8.445312 2.984375 -8.46875 L 2.984375 -8.21875 C 2.785156 -8.21875 2.609375 -8.195312 2.453125 -8.15625 C 2.296875 -8.113281 2.191406 -8.035156 2.140625 -7.921875 C 2.085938 -7.804688 2.117188 -7.640625 2.234375 -7.421875 L 4.203125 -3.640625 L 4.015625 -3.4375 L 5.484375 -6.359375 C 5.734375 -6.847656 5.859375 -7.222656 5.859375 -7.484375 C 5.867188 -7.753906 5.78125 -7.941406 5.59375 -8.046875 C 5.414062 -8.160156 5.160156 -8.21875 4.828125 -8.21875 L 4.828125 -8.46875 C 5.078125 -8.457031 5.320312 -8.445312 5.5625 -8.4375 C 5.800781 -8.425781 6.023438 -8.421875 6.234375 -8.421875 C 6.429688 -8.421875 6.601562 -8.425781 6.75 -8.4375 C 6.894531 -8.445312 7.023438 -8.457031 7.140625 -8.46875 Z M 4.40625 -3.84375 L 4.40625 -1.265625 C 4.40625 -0.984375 4.425781 -0.769531 4.46875 -0.625 C 4.519531 -0.476562 4.613281 -0.378906 4.75 -0.328125 C 4.882812 -0.285156 5.082031 -0.253906 5.34375 -0.234375 L 5.34375 0 C 5.15625 -0.0195312 4.910156 -0.03125 4.609375 -0.03125 C 4.316406 -0.03125 4.019531 -0.03125 3.71875 -0.03125 C 3.394531 -0.03125 3.082031 -0.03125 2.78125 -0.03125 C 2.488281 -0.03125 2.253906 -0.0195312 2.078125 0 L 2.078125 -0.234375 C 2.347656 -0.253906 2.550781 -0.285156 2.6875 -0.328125 C 2.820312 -0.378906 2.910156 -0.476562 2.953125 -0.625 C 3.003906 -0.769531 3.03125 -0.984375 3.03125 -1.265625 L 3.03125 -3.71875 L 3.796875 -2.96875 Z M 4.40625 -3.84375 "/></g></g></g></svg>